<?xml version="1.0" encoding="UTF-8"?>
<svg id="Layer_2" data-name="Layer 2" xmlns="http://www.w3.org/2000/svg" viewBox="0 0 90.24 90.24">
  <defs>
    <style>
      .cls-1 {
        fill: #d2ae6d;
        fill-rule: evenodd;
      }
    </style>
  </defs>
  <g id="Layer_1-2" data-name="Layer 1">
    <g id="Layer_2-2" data-name="Layer 2">
      <g id="uuid-8cbb92f0-2ce1-430b-8810-ae4142be9db5" data-name="Layer 1-2">
        <path class="cls-1" d="M74.13,0H16.11C7.21,0,0,7.21,0,16.11v58.02c0,8.9,7.21,16.11,16.11,16.11h58.02c8.89,0,16.11-7.2,16.11-16.1h0V16.11C90.24,7.21,83.03,0,74.13,0h0ZM58.15,21.08c0,.79-.62,1.44-1.4,1.48-12.33.68-21.77,11.22-21.1,23.54.55,10.06,7.76,18.51,17.61,20.63.8.16,1.58-.36,1.74-1.16.02-.1.03-.19.03-.29v-18.8c0-.82.66-1.48,1.48-1.48h.16c.82,0,1.48.66,1.48,1.48h0v21.45c0,1.21-.98,2.18-2.19,2.18-.06,0-.13,0-.19,0-13.93-1.2-24.25-13.46-23.06-27.39,1.08-12.58,11.27-22.44,23.87-23.11.82-.04,1.51.59,1.55,1.41,0,.03,0,.05,0,.08h0ZM30.9,44.87c.01,14.46,11.37,26.36,25.81,27.04.81.04,1.45.71,1.44,1.52h0c.02.84-.65,1.54-1.49,1.56-.04,0-.08,0-.13,0-16.62-.75-29.48-14.83-28.73-31.45.7-15.56,13.16-28.02,28.73-28.73.85-.03,1.56.63,1.6,1.47,0,.23-.03.46-.12.67-.24.53-.76.87-1.34.87-14.43.71-25.76,12.6-25.78,27.04Z"/>
      </g>
    </g>
  </g>
</svg>